<?xml version="1.0" encoding="UTF-8"?>
<!DOCTYPE svg PUBLIC "-//W3C//DTD SVG 1.1//EN" "http://www.w3.org/Graphics/SVG/1.1/DTD/svg11.dtd">
<!-- Creator: CorelDRAW -->
<svg xmlns="http://www.w3.org/2000/svg" xml:space="preserve" width="134mm" height="23.4mm" version="1.1" style="shape-rendering:geometricPrecision; text-rendering:geometricPrecision; image-rendering:optimizeQuality; fill-rule:evenodd; clip-rule:evenodd"
viewBox="0 0 13400 2340"
 xmlns:xlink="http://www.w3.org/1999/xlink"
 xmlns:xodm="http://www.corel.com/coreldraw/odm/2003">
 <defs>
  <style type="text/css">
   <![CDATA[
    .str0 {stroke:#FEFEFE;stroke-width:130.66;stroke-miterlimit:10}
    .fil2 {fill:none;fill-rule:nonzero}
    .fil0 {fill:#46C6EC}
    .fil1 {fill:#FEFEFE;fill-rule:nonzero}
   ]]>
  </style>
      <clipPath id="id0">
       <path d="M7511.23 95.35c104.42,0 189.09,84.66 189.09,189.09 0,104.44 -84.67,189.09 -189.09,189.09 -104.44,0 -189.1,-84.65 -189.1,-189.09 0,-104.43 84.66,-189.09 189.1,-189.09z"/>
      </clipPath>
       <clipPath id="id1">
        <path d="M1883.13 31.57c159.99,0 289.69,129.69 289.69,289.69 0,159.99 -129.7,289.69 -289.69,289.69 -160,0 -289.69,-129.7 -289.69,-289.69 0,-160 129.69,-289.69 289.69,-289.69z"/>
       </clipPath>
 </defs>
 <g id="Слой_x0020_1">
  <metadata id="CorelCorpID_0Corel-Layer"/>
  <g id="_1673904835808">
   <g>
    <image x="7259.64" y="31.16" width="508.72" height="503.92" xlink:href="wordmark white_Images\wordmark white_ImgID1.png"/>
    <circle class="fil0" cx="7511.22" cy="284.44" r="189.09"/>
    <g>
     <g style="clip-path:url(#id0)">
      <image x="7322.13" y="95.35" width="378.19" height="378.18" xlink:href="wordmark white_Images\wordmark white_ImgID2.png"/>
     </g>
    </g>
   </g>
   <polygon class="fil1" points="2796.07,1846.4 2796.07,318.46 3067.88,318.46 3850.39,1344.46 3850.39,318.46 4158.19,318.46 4158.19,1846.4 3850.39,1846.4 3093.52,767.38 3093.52,1846.4 "/>
   <path class="fil1" d="M5031.18 1593.91c-196.53,0 -355.89,-159.36 -355.89,-355.99 0,-196.54 159.36,-355.9 355.89,-355.9 196.64,0 356.05,159.36 356.05,355.9 0,196.63 -159.41,355.99 -356.05,355.99zm351.98 -977.3c0,45.92 5.36,96.25 -1.3,141.13 -67.58,-78.32 -149.07,-110.62 -247.27,-138.69 -127.21,-36.28 -258.89,-38.91 -383.12,11.47 -131.64,53.27 -248.91,166.13 -304.52,297.81 -10.49,24.5 -19.28,49.74 -26.69,75.48 -5.71,19.53 -10.48,39.36 -14.6,59.34 -74.05,361.06 118.11,788.52 524,812.82 106.69,6.36 214.92,-16.4 310.13,-65 39.91,-20.32 143.37,-84.68 143.37,-139.39 0,0.4 0,174.82 0,174.82l320.71 0 0 -1229.79 -320.71 0z"/>
   <polygon class="fil1" points="6200.95,614.13 5864.23,614.13 6330.79,1838.3 6696.38,1838.3 7177.4,626.25 6852.71,614.13 6542.43,1530.5 6520.82,1530.5 "/>
   <polygon class="fil1" points="7356.2,614.13 7356.2,1838.3 7659.17,1838.3 7659.17,614.13 "/>
   <polygon class="fil1" points="8280.82,1837.26 7977.7,1837.26 7977.7,283.17 8348.16,283.17 8848.31,1442.3 9338.98,283.17 9719.02,283.17 9719.02,1838.3 9411.18,1838.3 9411.18,807.53 8975.72,1838.3 8716.13,1838.3 8280.73,819.46 "/>
   <polygon class="fil1" points="10024.24,614.13 10024.24,1838.3 10327.16,1838.3 10327.16,614.13 "/>
   <path class="fil1" d="M10363.64 283.17c0,103.81 -84.18,187.79 -187.94,187.79 -103.81,0 -187.94,-83.98 -187.94,-187.79 0,-103.75 84.13,-187.88 187.94,-187.88 103.76,0 187.94,84.13 187.94,187.88z"/>
   <path class="fil1" d="M10937.24 614.13l-311.03 0c-0.35,0 0.2,953.15 0.2,1037.97 0,62.12 0.15,124.18 0.15,186.2 103.61,0 207.22,0 311.02,-0.2 -0.89,-185.1 -1.59,-370.21 -2.28,-555.46 -0.55,-98.54 0.49,-202.5 50.83,-287.37 37.52,-63.46 101.48,-110.47 173.18,-127.32 168.31,-39.55 329.21,84.38 335.87,254.63 9.69,243.79 0,715.72 0,715.72 0,0 302.93,0 310.83,0 0.35,0 0.2,-370.41 0.2,-395.3 0,-137.55 -1.39,-275.45 0,-413 1.19,-110.12 -58.94,-223.51 -137.8,-299.1 -180.03,-172.98 -505.42,-182.12 -690.72,-11.03 -15.76,14.36 -30.32,30.21 -43.63,46.81l3.18 -152.55z"/>
   <path class="fil1" d="M12679.21 1607.08c-189.48,0 -343.23,-167.91 -343.23,-375.13 0,-207.22 153.75,-375.13 343.23,-375.13 189.52,0 343.07,167.91 343.07,375.13 0,207.22 -153.55,375.13 -343.07,375.13zm331.84 -1418.87c0,0 2.49,588.61 2.49,589.16 -0.2,-13.82 -46.81,-46.62 -56.11,-54.17 -49.44,-41.54 -105.54,-75.38 -166.02,-98.34 -365.54,-138.84 -723.32,176.71 -760.29,538.77 -37.72,366.87 210,707.96 596.36,703.44 3.87,0 7.55,0 11.43,-0.2 116.38,-3.28 247.32,-32.94 330.25,-120.8 17.54,-18.34 32.45,-39.45 44.38,-62.02l0 168.46 315 0 0 -1664.3 -317.49 0z"/>
   <g>
    <g>
     <image x="1497.69" y="-66.77" width="779.37" height="772.02" xlink:href="wordmark white_Images\wordmark white_ImgID3.png"/>
     <circle class="fil0" cx="1883.13" cy="321.26" r="289.69"/>
     <g>
      <g style="clip-path:url(#id1)">
       <image x="1593.44" y="31.57" width="579.38" height="579.38" xlink:href="wordmark white_Images\wordmark white_ImgID4.png"/>
      </g>
     </g>
    </g>
    <line class="fil2 str0" x1="227.28" y1="1874.79" x2="2095.04" y2= "1874.79" />
    <line class="fil2 str0" x1="-33" y1="2231.62" x2="2356.98" y2= "2231.62" />
    <path class="fil1" d="M1580.25 12.52c-87.66,0 -175.25,0 -262.95,0 -162.14,0 -324.32,0 -486.46,0 -61.96,0 -123.88,0 -185.8,0 -35.89,0 -67.33,0.11 -102.66,10.44 -199.59,57.89 -341.47,237.92 -320.8,448.39l-2.33 828.06c0,0 -1.3,225.88 271.17,186.44 0,0 247.39,-14.33 627.41,-365.69 0,0 412.24,-383.57 462.42,-509.01 0,0 -225.84,-311.87 0,-598.63z"/>
    <path class="fil1" d="M1723.72 725.85c0,0 136.14,105.85 383.57,28.78 1.86,81.25 3.26,162.66 4.34,243.91 1.55,123.33 19.18,267.06 -23,385.05 -15.56,43.63 -39.07,84.67 -69.41,119.78 -66.73,77.77 -160.28,122.84 -261.54,127.77 0,0 -1046.57,7.07 -1046.76,7.07 6.41,0 18.45,-9.81 23.93,-12.67 21.29,-11.48 42.51,-22.99 63.7,-34.59 58.48,-32.18 116.1,-65.33 174.14,-97.88 58.33,-32.66 113.81,-70.55 165.58,-112.92 34,-27.67 62.63,-58.52 93.11,-89.74 74.14,-76.18 150.4,-150.36 219.39,-230.87 72.92,-84.92 145.81,-169.85 218.73,-254.77 18,-21.03 49.52,-50.81 54.22,-78.92z"/>
   </g>
  </g>
 </g>
</svg>
